<svg width="180" height="70" viewBox="0 0 180 70" fill="none" xmlns="http://www.w3.org/2000/svg">
<g clip-path="url(#clip0_1464_1457)">
<path d="M17.2333 52.4644C12.2773 52.4644 8.15853 50.8232 4.87706 47.5409C1.62663 44.2593 0.000940655 40.1565 4.07621e-07 35.2325C-0.00093984 30.3084 1.62475 26.2211 4.87706 22.9707C8.12656 19.6563 12.2453 17.9996 17.2333 18.0006C20.1091 17.9774 22.9434 18.686 25.4698 20.0597C27.9226 21.3646 29.9822 23.3011 31.4358 25.6687L24.9015 29.457C24.1848 28.1719 23.1057 27.1261 21.7988 26.4501C20.456 25.7402 18.9333 25.3853 17.2305 25.3853C14.2631 25.3853 11.9125 26.2846 10.1786 28.0833C8.44296 29.8519 7.5751 32.235 7.5751 35.2325C7.5751 38.2299 8.44108 40.613 10.173 42.3816C11.9087 44.1803 14.2593 45.0797 17.2249 45.0797C18.8142 45.0997 20.3836 44.7256 21.7931 43.991C23.1014 43.3278 24.1819 42.2892 24.8958 41.008L31.4301 44.7962C30.0024 47.1697 27.9543 49.1089 25.5065 50.4053C22.9675 51.7806 20.1208 52.4891 17.2333 52.4644Z" fill="#6B4CB0"/>
<path d="M60.1807 51.8019H52.0386L45.7892 40.9138H42.1886V51.8019H34.6162V18.6582H47.8738C51.0293 18.6582 53.7117 19.7625 55.9213 21.9712C58.1308 24.1798 59.2356 26.8628 59.2356 30.0202C59.2361 32.007 58.6514 33.95 57.5546 35.6067C56.462 37.3165 54.9347 38.7053 53.1287 39.6304L60.1807 51.8019ZM47.8722 25.7651H42.1886V34.2865H47.8722C48.9133 34.2865 49.8064 33.8761 50.5521 33.0553C51.2976 32.2345 51.6681 31.2246 51.6634 30.0258C51.6634 28.826 51.2929 27.8157 50.5521 26.9949C49.8111 26.1741 48.9179 25.7641 47.8722 25.7651Z" fill="#6B4CB0"/>
<path d="M70.9741 38.6417V44.5117H84.2315V51.8019H63.4004V18.6582H83.9918V25.9484H70.9741V31.4404H82.8071V38.6333L70.9741 38.6417Z" fill="#6B4CB0"/>
<path d="M119.941 51.8019V18.6582H127.516V51.8019H119.941Z" fill="#6B4CB0"/>
<path d="M130.478 18.6631H155.095V25.9533H146.573V51.8012H138.999V25.9533H130.478V18.6631Z" fill="#6B4CB0"/>
<path d="M158.222 25.9533V18.6631H180V25.0098L169.205 51.8069H161.157L171.573 25.9589L158.222 25.9533Z" fill="#52CDB0"/>
<path d="M87.2355 18.6875H100.493C105.039 18.6875 108.859 20.2822 111.952 23.4715C115.046 26.6608 116.593 30.591 116.593 35.2622C116.593 39.9634 115.046 43.9097 111.952 47.1008C108.889 50.2574 105.069 51.8355 100.493 51.8355H87.2355V18.6875ZM94.812 44.5411H100.496C103.115 44.5411 105.231 43.7043 106.842 42.0305C108.482 40.3579 109.303 38.1013 109.305 35.2608C109.307 32.4203 108.486 30.1787 106.842 28.5361C105.232 26.8315 103.116 25.9791 100.496 25.9791H94.812V44.5411Z" fill="#6B4CB0"/>
</g>
<defs>
<clipPath id="clip0_1464_1457">
<rect width="180" height="70" fill="white"/>
</clipPath>
</defs>
</svg>
