<svg width="180" height="72" viewBox="0 0 180 72" fill="none" xmlns="http://www.w3.org/2000/svg">
<g clip-path="url(#clip0_301_30)">
<path d="M66.3108 26.2126L73.7863 40.7948L78.8464 42.3944C81.2983 43.1192 87.5254 39.3273 80.3412 32.2361C74.2494 26.2126 69.8408 25.4378 66.3108 26.2126Z" fill="url(#paint0_linear_301_30)"/>
<path d="M102.783 18.0329L90.0833 40.8882L85.4771 46.976C83.8365 50.0324 78.4677 48.0051 76.9957 46.976C74.4339 42.0593 73.4163 40.099 73.1137 39.5028C73.039 39.3529 73.0068 39.2886 73.0068 39.285C73.0068 39.285 73.0285 39.317 73.0569 39.3742C73.0642 39.3885 73.0748 39.4063 73.0816 39.4206C74.238 40.0206 77.1345 39.9598 79.455 34.9253C79.8032 34.1719 80.1842 33.3471 80.6109 32.4759C83.7494 26.0953 89.393 17.3974 102.783 18.0329Z" fill="url(#paint1_linear_301_30)"/>
<path fill-rule="evenodd" clip-rule="evenodd" d="M90.0831 40.8884L86.6995 46.9761C84.174 51.0526 80.4526 52.7334 76.9955 46.9761C74.4336 42.0595 73.4161 40.0993 73.1135 39.5029C73.0957 39.4601 73.0783 39.4173 73.0567 39.3744C73.0283 39.3101 73 39.2459 72.9716 39.178C74.4157 39.4351 75.3839 39.1352 75.8964 38.9173C77.6253 38.1712 78.5366 36.4394 79.75 34.1364L79.7605 34.1185C79.8457 33.9579 79.9241 33.8114 79.9951 33.6722C80.2655 33.1652 80.465 32.7903 80.6003 32.4689C80.6039 32.4725 80.6076 32.4762 80.6076 32.4762C82.4896 34.2721 83.8351 35.811 84.9274 37.0643C86.7704 39.178 87.9053 40.4777 89.7133 40.8134C89.8374 40.8419 89.9621 40.867 90.0831 40.8884Z" fill="url(#paint2_linear_301_30)"/>
<path d="M15.7517 29.8801V49.6014H12.0087V41.3059H3.74299V49.6014H0V29.8801H3.74299V37.7059H12.0087V29.8801H15.7517ZM25.4138 35.0452C26.2248 35.0452 26.9734 35.1913 27.6596 35.4834C28.3458 35.7547 28.9384 36.1408 29.4375 36.6416C29.9367 37.1426 30.3213 37.7373 30.5917 38.426C30.8827 39.1147 31.0283 39.866 31.0283 40.6798V49.6014H28.377L27.7532 48.1928C27.4205 48.4849 27.0566 48.7458 26.6615 48.9754C26.3081 49.184 25.8817 49.3718 25.3826 49.5389C24.8836 49.6848 24.3221 49.758 23.6983 49.758C22.1387 49.758 20.943 49.3823 20.1113 48.631C19.2795 47.8588 18.8635 46.878 18.8635 45.6885C18.8635 44.9789 18.9987 44.332 19.2692 43.7476C19.5602 43.1424 20.0385 42.631 20.7039 42.2137C21.3693 41.7754 22.2426 41.4415 23.324 41.2121C24.4261 40.9616 25.7986 40.8364 27.4413 40.8364C27.4413 40.0434 27.2229 39.4277 26.7862 38.9894C26.3703 38.5512 25.809 38.3321 25.1019 38.3321C24.6236 38.3321 24.239 38.4155 23.9479 38.5825C23.6776 38.7495 23.4592 38.9268 23.2928 39.1147C23.1057 39.3443 22.9809 39.6051 22.9185 39.8973H19.3314C19.4147 39.2294 19.6018 38.6033 19.893 38.019C20.2049 37.4347 20.6207 36.9235 21.1406 36.4851C21.6605 36.0469 22.2738 35.7026 22.9809 35.4521C23.7087 35.1808 24.5197 35.0452 25.4138 35.0452ZM24.3222 46.9406C25.2578 46.9406 26.0064 46.6692 26.5679 46.1267C27.1502 45.5632 27.4413 44.8432 27.4413 43.9668V43.3406C26.3807 43.3406 25.5281 43.3928 24.8836 43.4972C24.239 43.5807 23.7295 43.7163 23.3552 43.9041C23.0016 44.0711 22.7626 44.2797 22.6378 44.5302C22.513 44.7806 22.4507 45.0623 22.4507 45.3754C22.4507 45.7719 22.6274 46.1372 22.9809 46.4711C23.3343 46.7841 23.7814 46.9406 24.3222 46.9406ZM48.1715 46.158V52.7318H44.5845V49.6014H36.1627V52.7318H32.5758V46.158H33.6675C33.917 46.0328 34.1561 45.8554 34.3848 45.6258C34.572 45.438 34.7487 45.198 34.9151 44.9059C35.0815 44.6136 35.1854 44.2484 35.227 43.8102L36.1627 35.2017H46.3V46.158H48.1715ZM38.658 43.8102C38.6164 44.2484 38.5333 44.6136 38.4085 44.9059C38.2837 45.198 38.159 45.438 38.0342 45.6258C37.8887 45.8554 37.7328 46.0328 37.5664 46.158H42.713V38.6451H39.2819L38.658 43.8102ZM53.1512 42.4016C53.1512 43.5911 53.4943 44.5406 54.1805 45.2502C54.8667 45.9597 55.7193 46.3145 56.7383 46.3145C57.7572 46.3145 58.6098 45.9597 59.296 45.2502C59.9821 44.5406 60.3254 43.5911 60.3254 42.4016C60.3254 41.2121 59.9821 40.2625 59.296 39.5529C58.6098 38.8433 57.7572 38.4885 56.7383 38.4885C55.7193 38.4885 54.8667 38.8433 54.1805 39.5529C53.4943 40.2625 53.1512 41.2121 53.1512 42.4016ZM63.9122 42.4016C63.9122 43.4241 63.7146 44.3842 63.3194 45.2814C62.9452 46.158 62.4253 46.9301 61.7603 47.5979C61.1157 48.2658 60.3563 48.7979 59.4831 49.1945C58.6305 49.5701 57.7155 49.758 56.7383 49.758C55.7609 49.758 54.8355 49.5701 53.9622 49.1945C53.1097 48.7979 52.3507 48.2658 51.6852 47.5979C51.0406 46.9301 50.5207 46.158 50.1256 45.2814C49.7513 44.3842 49.5642 43.4241 49.5642 42.4016C49.5642 41.3789 49.7513 40.4295 50.1256 39.5529C50.5207 38.6555 51.0406 37.8729 51.6852 37.2051C52.3507 36.5373 53.1097 36.0156 53.9622 35.6399C54.8355 35.2434 55.7609 35.0452 56.7383 35.0452C57.7155 35.0452 58.6305 35.2434 59.4831 35.6399C60.3563 36.0156 61.1157 36.5373 61.7603 37.2051C62.4253 37.8729 62.9452 38.6555 63.3194 39.5529C63.7146 40.4295 63.9122 41.3789 63.9122 42.4016Z" fill="#2E3634"/>
<path d="M119.81 46.0014V53.3578H116.067V49.6014H104.214V53.3578H100.471V46.0014H101.563C101.917 45.8345 102.239 45.605 102.53 45.3128C102.779 45.0623 103.018 44.7284 103.247 44.311C103.497 43.8728 103.663 43.3406 103.746 42.7146L105.306 29.8801H117.627V46.0014H119.81ZM113.884 33.48H108.425L107.334 42.7146C107.25 43.3406 107.115 43.8728 106.928 44.311C106.761 44.7284 106.595 45.0623 106.429 45.3128C106.221 45.605 106.002 45.8345 105.774 46.0014H113.884V33.48ZM134.775 45.2188C134.587 45.7615 134.296 46.3041 133.901 46.8467C133.527 47.3893 133.059 47.8797 132.498 48.3179C131.957 48.7353 131.333 49.0797 130.626 49.3509C129.94 49.6223 129.191 49.758 128.38 49.758C127.403 49.758 126.477 49.5701 125.604 49.1945C124.752 48.7979 123.993 48.2658 123.327 47.5979C122.682 46.9301 122.163 46.158 121.768 45.2814C121.393 44.3842 121.206 43.4241 121.206 42.4016C121.206 41.3789 121.393 40.4295 121.768 39.5529C122.163 38.6555 122.682 37.8729 123.327 37.2051C123.993 36.5373 124.752 36.0156 125.604 35.6399C126.477 35.2434 127.403 35.0452 128.38 35.0452C129.316 35.0452 130.199 35.2226 131.032 35.5774C131.863 35.9321 132.591 36.433 133.215 37.0799C133.839 37.7269 134.328 38.5095 134.681 39.4277C135.056 40.325 135.243 41.3164 135.243 42.4016C135.243 42.5685 135.232 42.7355 135.212 42.9024C135.191 43.0484 135.17 43.1945 135.149 43.3406C135.128 43.5076 135.108 43.6641 135.087 43.8102H125.105C125.271 44.5198 125.625 45.1146 126.165 45.5945C126.707 46.0745 127.445 46.3145 128.38 46.3145C128.858 46.3145 129.254 46.2623 129.566 46.158C129.899 46.0536 130.179 45.9284 130.408 45.7823C130.657 45.6153 130.865 45.4276 131.032 45.2188H134.775ZM128.38 38.4885C127.445 38.4885 126.675 38.7599 126.072 39.3025C125.49 39.845 125.115 40.5129 124.949 41.3059H131.812C131.644 40.5129 131.26 39.845 130.657 39.3025C130.075 38.7599 129.316 38.4885 128.38 38.4885ZM150.831 35.2017V49.6014H147.244V43.9667H141.474V49.6014H137.887V35.2017H141.474V40.5233H147.244V35.2017H150.831ZM167.063 45.2188C166.875 45.7615 166.584 46.3041 166.189 46.8467C165.815 47.3893 165.348 47.8797 164.786 48.3179C164.245 48.7353 163.621 49.0797 162.914 49.3509C162.228 49.6223 161.479 49.758 160.669 49.758C159.691 49.758 158.767 49.5701 157.892 49.1945C157.04 48.7979 156.281 48.2658 155.616 47.5979C154.971 46.9301 154.451 46.158 154.056 45.2814C153.682 44.3842 153.494 43.4241 153.494 42.4016C153.494 41.3789 153.682 40.4295 154.056 39.5529C154.451 38.6555 154.971 37.8729 155.616 37.2051C156.281 36.5373 157.04 36.0156 157.892 35.6399C158.767 35.2434 159.691 35.0452 160.669 35.0452C161.605 35.0452 162.489 35.2226 163.32 35.5774C164.151 35.9321 164.88 36.433 165.503 37.0799C166.127 37.7269 166.616 38.5095 166.969 39.4277C167.344 40.325 167.531 41.3164 167.531 42.4016C167.531 42.5685 167.52 42.7355 167.5 42.9024C167.479 43.0484 167.458 43.1945 167.437 43.3406C167.416 43.5076 167.396 43.6641 167.375 43.8102H157.394C157.559 44.5198 157.913 45.1146 158.453 45.5945C158.995 46.0745 159.733 46.3145 160.669 46.3145C161.147 46.3145 161.542 46.2623 161.854 46.158C162.187 46.0536 162.468 45.9284 162.696 45.7823C162.946 45.6153 163.153 45.4276 163.32 45.2188H167.063ZM160.669 38.4885C159.733 38.4885 158.963 38.7599 158.36 39.3025C157.778 39.845 157.404 40.5129 157.237 41.3059H164.1C163.933 40.5129 163.548 39.845 162.946 39.3025C162.363 38.7599 161.605 38.4885 160.669 38.4885ZM180 38.6451H173.762V49.6014H170.175V35.2017H180V38.6451Z" fill="#2E3634"/>
</g>
<defs>
<linearGradient id="paint0_linear_301_30" x1="73.1738" y1="25.4634" x2="76.8702" y2="38.4473" gradientUnits="userSpaceOnUse">
<stop stop-color="#27B993"/>
<stop offset="1" stop-color="#0A8645"/>
</linearGradient>
<linearGradient id="paint1_linear_301_30" x1="81.1202" y1="45.8598" x2="90.9716" y2="21.0262" gradientUnits="userSpaceOnUse">
<stop stop-color="#0FDEA8"/>
<stop offset="1" stop-color="#0CC68B"/>
</linearGradient>
<linearGradient id="paint2_linear_301_30" x1="84.7323" y1="44.5163" x2="78.0131" y2="38.9381" gradientUnits="userSpaceOnUse">
<stop stop-color="#0ED39B"/>
<stop offset="1" stop-color="#29BA93"/>
</linearGradient>
<clipPath id="clip0_301_30">
<rect width="180" height="72" fill="white"/>
</clipPath>
</defs>
</svg>
