<svg width="180" height="72" viewBox="0 0 180 72" fill="none" xmlns="http://www.w3.org/2000/svg">
<path d="M98.5088 43.0094L95.92 42.9914L98.1432 49.1036H95.8481L93.583 43.0214H91.3838V35.0874L98.5088 43.0094Z" fill="#FCB715"/>
<path d="M0 35.1833V27.531C0 23.7138 1.6599 22.1378 5.99241 22.1378C10.3249 22.1378 12.1526 23.7078 12.1526 27.531V35.1833C12.1526 38.9046 10.277 40.5765 5.99241 40.5765C1.70784 40.5765 0 38.8866 0 35.1833ZM8.94667 35.0215V27.6928C8.94667 26.0509 8.52121 24.9962 5.99241 24.9962C3.67335 24.9962 3.22991 26.0509 3.22991 27.6928V34.9975C3.22991 36.7054 3.67335 37.6881 6.01638 37.6881C8.35941 37.6881 8.94667 36.7054 8.94667 34.9975V35.0215Z" fill="#231F20"/>
<path d="M15.335 26.5662H18.1214L18.2832 27.9924C18.6814 27.518 19.1796 27.1376 19.7422 26.8786C20.3048 26.6196 20.9178 26.4883 21.5371 26.4943C23.8082 26.4943 26.0314 27.6928 26.0314 31.8875V40.3847H22.8494V31.8815C22.8494 30.0838 22.1004 29.3767 20.7641 29.3767C19.5237 29.3767 18.5409 29.9759 18.5409 31.7737V40.3847H15.335V26.5662Z" fill="#231F20"/>
<path d="M39.6161 36.1481C39.6161 39.0485 37.8843 40.4327 34.2529 40.4327C30.6215 40.4327 28.8896 38.7728 28.8896 35.0395V31.9055C28.8896 28.4419 30.6215 26.5123 34.2529 26.5123C37.8843 26.5123 39.6161 28.1722 39.6161 31.9055V34.644H32.1196V34.9976C32.1196 37.2208 32.9885 37.6462 34.2948 37.6462C35.8169 37.6462 36.4521 37.1069 36.4521 36.1481H39.6161ZM32.1196 32.0014H36.5C36.5 30.2696 36.1704 29.3108 34.3487 29.3108C32.527 29.3108 32.1196 30.3415 32.1196 32.0014Z" fill="#231F20"/>
<path d="M55.5796 31.7197C55.5796 30.1497 55.0163 29.3767 53.4283 29.3767C51.6306 29.3767 51.1332 30.3594 51.1332 32.0673V35.0635C51.1332 36.7713 51.5767 37.7541 53.2665 37.7541C54.9564 37.7541 55.5616 37.029 55.5856 35.3871H58.6297C58.6297 39.1084 56.8979 40.6065 53.2665 40.6065C49.6351 40.6065 47.9033 38.9466 47.9033 35.1534V32.0733C47.9033 28.352 49.701 26.5243 53.3564 26.5243C57.0118 26.5243 58.6237 27.9984 58.6237 31.7197H55.5796Z" fill="#231F20"/>
<path d="M61.3145 22.3296H64.5204V35.2792C64.5204 36.8013 64.802 37.2926 66.1383 37.2926V40.3847C62.4171 40.3847 61.3444 39.2821 61.3444 35.3271L61.3145 22.3296Z" fill="#231F20"/>
<path d="M72.5085 23.7977C72.5085 26.1228 68.9131 26.1468 68.9131 23.7977C68.9131 21.4487 72.5085 21.4008 72.5085 23.7977ZM72.2748 40.4207H69.0689V26.8718H72.2748V40.4207Z" fill="#231F20"/>
<path d="M82.8149 31.7197C82.8149 30.1497 82.2517 29.3767 80.6637 29.3767C78.866 29.3767 78.3686 30.3594 78.3686 32.0673V35.0635C78.3686 36.7713 78.812 37.7541 80.5019 37.7541C82.1917 37.7541 82.797 37.029 82.8209 35.3871H85.8651C85.8651 39.1084 84.1333 40.6065 80.5019 40.6065C76.8705 40.6065 75.1387 38.9466 75.1387 35.1534V32.0733C75.1387 28.352 76.9364 26.5243 80.5918 26.5243C84.2471 26.5243 85.8591 27.9984 85.8591 31.7197H82.8149Z" fill="#231F20"/>
<path d="M107.642 26.5663H110.428L110.638 27.9685C111.024 27.4818 111.521 27.0942 112.086 26.8378C112.652 26.5814 113.271 26.4637 113.892 26.4944C115.252 26.4944 116.63 26.9378 117.289 28.2501C117.75 27.655 118.349 27.1806 119.034 26.8675C119.718 26.5544 120.469 26.4119 121.22 26.4524C124.079 26.4524 125.787 28.1123 125.787 31.8456V40.3848H122.581V31.8815C122.581 30.0838 121.856 29.3767 120.519 29.3767C119.321 29.3767 118.386 29.8921 118.344 31.8576V40.3848H115.138V31.8815C115.138 30.0838 114.413 29.3767 113.077 29.3767C111.836 29.3767 110.854 29.976 110.854 31.7737V40.3848H107.648L107.642 26.5663Z" fill="#231F20"/>
<path d="M128.687 35.2313V31.9055C128.687 28.2741 130.418 26.5123 134.05 26.5123C137.681 26.5123 139.413 28.1722 139.413 31.9055V35.2313C139.413 38.9526 137.681 40.6245 134.05 40.6245C130.418 40.6245 128.687 38.9526 128.687 35.2313ZM136.177 35.0695V32.0733C136.177 30.3654 135.734 29.3827 134.05 29.3827C132.366 29.3827 131.916 30.3654 131.916 32.0733V35.0695C131.916 36.7773 132.36 37.7601 134.05 37.7601C135.74 37.7601 136.177 36.7773 136.177 35.0695Z" fill="#231F20"/>
<path d="M142.427 26.5662H145.214L145.375 27.9684C145.772 27.4974 146.268 27.1195 146.827 26.8617C147.386 26.6038 147.995 26.4722 148.611 26.4763C150.882 26.4763 153.106 27.6748 153.106 31.8695V40.3847H149.924V31.8814C149.924 30.0837 149.175 29.3766 147.838 29.3766C146.598 29.3766 145.615 29.9759 145.615 31.7736V40.3847H142.409L142.427 26.5662Z" fill="#231F20"/>
<path d="M167.014 36.1481C167.014 39.0485 165.283 40.4327 161.651 40.4327C158.02 40.4327 156.288 38.7728 156.288 35.0395V31.9055C156.288 28.4419 158.02 26.5123 161.651 26.5123C165.283 26.5123 167.014 28.1722 167.014 31.9055V34.644H159.518V34.9976C159.518 37.2208 160.387 37.6462 161.693 37.6462C163.215 37.6462 163.845 37.1069 163.845 36.1481H167.014ZM159.524 32.0014H163.904C163.904 30.2696 163.575 29.3108 161.753 29.3108C159.931 29.3108 159.518 30.3415 159.518 32.0014H159.524Z" fill="#231F20"/>
<path d="M180 26.5663L175.901 40.217L175.152 42.8836C174.265 45.9997 172.413 46.3233 169.759 45.2806L170.25 42.9136C171.071 43.0993 171.934 43.4529 172.264 42.2364L172.803 40.2949L168.656 26.5723H172.006L173.246 30.719C173.709 32.6341 174.069 34.5724 174.325 36.5257C174.583 34.7279 174.924 32.6126 175.404 30.719L176.602 26.5723L180 26.5663Z" fill="#231F20"/>
<path d="M96.1721 40.4147L91.3782 35.0874V34.3923V40.3847H88.1543V22.2577H91.3782V31.48H92.2831L95.7167 26.5423H99.3122L94.8778 32.7864L99.7915 40.4267L96.1721 40.4147Z" fill="#231F20"/>
</svg>
