<svg width="182" height="72" viewBox="0 0 182 72" fill="none" xmlns="http://www.w3.org/2000/svg">
<g clip-path="url(#clip0_99_4478)">
<path fill-rule="evenodd" clip-rule="evenodd" d="M157.537 71.804H160.155L158.552 66.4646C158.458 65.9003 158.21 65.3733 157.834 64.942C157.458 64.5107 156.97 64.1921 156.424 64.0216V63.9082C156.887 63.8814 157.338 63.7563 157.749 63.5412C158.159 63.3262 158.52 63.0261 158.805 62.661C159.348 61.7419 159.599 60.6799 159.527 59.615C159.527 57.7545 159.114 56.4608 158.274 55.7805C157.434 55.1002 156.006 54.7497 153.971 54.7497C152.008 54.7251 150.045 54.7991 148.09 54.9713V71.8246H150.507V64.872H153.971C155.046 64.872 155.756 65.4355 156.099 66.5625L157.537 71.804ZM153.935 62.7795H150.518V56.8525H153.935C155.135 56.8525 155.96 57.0484 156.414 57.4555C156.867 57.8627 157.089 58.6048 157.089 59.7696C157.089 60.9344 156.857 61.7127 156.414 62.1301C155.97 62.5476 155.146 62.7795 153.935 62.7795ZM68.8437 63.1198V63.0271C69.2635 63.0123 69.6752 62.907 70.0505 62.7184C70.4259 62.5298 70.7561 62.2624 71.0186 61.9344C71.5285 61.1052 71.768 60.1381 71.7041 59.1668C71.7041 57.4557 71.2711 56.3115 70.4723 55.6931C69.6734 55.0746 68.184 54.7705 66.0657 54.7705C63.6382 54.7705 61.7674 54.8427 60.4531 54.9715V71.8299C61.934 71.9605 64.0488 72.0258 66.7976 72.0258C68.7973 72.0258 70.2043 71.7165 71.0083 71.0981C71.8123 70.4796 72.2195 69.3303 72.2195 67.6346C72.2877 66.5119 72.0204 65.3942 71.4515 64.4238C71.1399 64.0275 70.7445 63.7051 70.2937 63.4797C69.8428 63.2542 69.3476 63.1314 68.8437 63.1198ZM62.8497 62.1406H66.2512C67.4263 62.1406 68.2303 61.955 68.6839 61.5943C69.1374 61.2335 69.359 60.5171 69.359 59.4554C69.359 58.3937 69.1117 57.7237 68.6272 57.3938C68.1427 57.064 67.2408 56.8785 65.942 56.8785H62.8497V62.1406ZM66.4419 69.9333L62.8497 69.9075V64.0269H66.3028C67.617 64.0475 68.5241 64.2846 69.024 64.7124C69.524 65.1402 69.7662 65.9802 69.7662 67.2017C69.7662 68.2943 69.5343 69.0262 69.0704 69.387C68.6066 69.7477 67.7356 69.9333 66.4419 69.9333ZM56.4795 69.7787L56.4804 69.7942H49.7897C49.6028 69.8135 49.4139 69.7922 49.236 69.7317C49.0581 69.6712 48.8953 69.573 48.7589 69.4437C48.5245 69.0856 48.4174 68.659 48.4548 68.2326V63.9445H55.5569V61.9706H48.4445V58.5999C48.3994 58.1729 48.5071 57.7438 48.7486 57.3888C48.885 57.2595 49.0478 57.1613 49.2257 57.1008C49.4036 57.0403 49.5925 57.019 49.7794 57.0383H56.4795L56.5928 55.1313C55.1188 55.0077 52.712 54.9355 49.3774 54.9355C48.481 54.8841 47.5986 55.1752 46.9087 55.7498C46.6047 56.0293 46.3646 56.371 46.2045 56.7517C46.0444 57.1323 45.9682 57.543 45.981 57.9557V68.8407C45.9705 69.2532 46.0478 69.6631 46.2078 70.0434C46.3677 70.4237 46.6066 70.7656 46.9087 71.0466C47.5986 71.6212 48.481 71.9123 49.3774 71.8609C52.712 71.8609 55.1188 71.7888 56.5928 71.6651L56.4804 69.7942H56.4898L56.4795 69.7787ZM42.7392 54.9711L39.518 71.0926C39.4704 71.3056 39.348 71.4945 39.1731 71.625C38.9982 71.7554 38.7822 71.8189 38.5645 71.8038H35.8535C35.6338 71.8222 35.4151 71.7571 35.2413 71.6215C35.0674 71.4858 34.9511 71.2896 34.9155 71.0719L32.4726 58.7026C32.3077 57.8522 32.1943 57.2234 32.1324 56.7956H31.617L31.2563 58.7026L28.8391 71.0719C28.8026 71.2797 28.686 71.4648 28.5144 71.5873C28.3338 71.7251 28.1128 71.7994 27.8856 71.7986H25.1489C24.9329 71.8199 24.7169 71.7582 24.5446 71.6262C24.3724 71.4941 24.2568 71.3015 24.2212 71.0874L21 54.9711H23.577L25.9941 67.8044C26.0405 68.0827 26.1436 68.7939 26.2827 69.9535H26.8394C26.9218 69.2578 27.0404 68.5362 27.2001 67.8044L29.6225 55.77C29.6435 55.5426 29.7519 55.3322 29.925 55.1832C30.098 55.0342 30.3222 54.9582 30.5502 54.9711H33.1632C33.3835 54.9677 33.5964 55.051 33.7559 55.2031C33.9247 55.3511 34.0405 55.5501 34.0858 55.77L36.4617 67.825C36.5906 68.4795 36.7194 69.1856 36.8225 69.9535H37.3791C37.3925 69.8671 37.4074 69.7643 37.4245 69.6461C37.4533 69.4469 37.4885 69.2041 37.5337 68.9228C37.574 68.5763 37.6325 68.2323 37.7089 67.892L40.1261 55.0072H42.7031L42.7392 54.9711ZM84.6198 63.0271V63.1198C85.8412 63.2384 86.6814 63.6661 87.2225 64.398C87.795 65.367 88.0624 66.4858 87.9904 67.6089C87.9904 69.3045 87.5832 70.4538 86.7844 71.0723C85.9855 71.6908 84.5734 72 82.5737 72C79.8249 72 77.7101 71.9347 76.2292 71.8042V54.9715C77.5435 54.8427 79.4143 54.7705 81.8418 54.7705C83.9549 54.7705 85.4495 55.0746 86.2484 55.6931C87.0472 56.3115 87.4802 57.4557 87.4802 59.1668C87.5442 60.1381 87.3046 61.1052 86.7947 61.9344C86.5339 62.2642 86.204 62.5329 85.8283 62.7217C85.4525 62.9105 85.0401 63.0147 84.6198 63.0271ZM82.0376 62.1406H78.6309V56.8785H81.7233C83.0272 56.8785 83.9291 57.064 84.4136 57.3938C84.8981 57.7237 85.1454 58.3937 85.1454 59.4554C85.1454 60.5171 84.9238 61.2335 84.4703 61.5943C84.0167 61.955 83.2127 62.1406 82.0376 62.1406ZM78.6206 69.9075L82.2283 69.9333C83.522 69.9333 84.393 69.7478 84.8568 69.387C85.3207 69.0262 85.5526 68.2943 85.5526 67.2017C85.5526 65.9802 85.3104 65.1402 84.8104 64.7124C84.3105 64.2846 83.4035 64.0475 82.0892 64.0269H78.6464V69.9075H78.6206ZM94.2523 66.7325H100.952L102.499 71.8143H105.009L99.7309 55.6619C99.6966 55.4596 99.5863 55.278 99.4224 55.1543C99.2585 55.0307 99.0536 54.9745 98.8496 54.9971H96.3602C96.1542 54.9796 95.949 55.0373 95.7822 55.1595C95.6153 55.2817 95.4986 55.4602 95.4532 55.6619L90.2065 71.8143H92.7061L94.2523 66.7325ZM98.3342 58.2389L100.313 64.6091L94.9068 64.6349L96.8808 58.2389L97.2776 56.8679H97.9167C97.9401 56.9533 97.9699 57.0466 98.0055 57.1581C98.0409 57.2685 98.0819 57.3969 98.128 57.5534C98.2208 57.8678 98.2878 58.0894 98.3342 58.2389ZM121.073 54.9714V70.8505C121.073 71.4896 120.774 71.804 120.166 71.804H117.852C117.622 71.8028 117.399 71.7289 117.214 71.5928C117.028 71.4567 116.891 71.2654 116.821 71.0464L111.58 59.5841C110.999 58.3162 110.666 57.538 110.58 57.2494H110.245C110.33 58.0246 110.368 58.8043 110.358 59.5841V71.804H107.921V55.9248C107.9 55.7972 107.91 55.6667 107.949 55.5435C107.988 55.4203 108.055 55.308 108.145 55.2154C108.235 55.1228 108.346 55.0525 108.468 55.0101C108.59 54.9678 108.72 54.9545 108.848 54.9714H111.09C111.324 54.9727 111.552 55.0455 111.744 55.1799C111.935 55.3144 112.081 55.5042 112.162 55.7238L117.265 66.8975C117.3 66.9697 117.342 67.0611 117.394 67.1747L117.394 67.1754L117.395 67.1767C117.451 67.2978 117.518 67.4441 117.6 67.619C117.69 67.811 117.778 67.9932 117.864 68.1701L117.864 68.1704C117.931 68.3068 117.995 68.4402 118.058 68.5725C118.148 68.7616 118.228 68.9386 118.304 69.1074L118.304 69.1075L118.371 69.2566C118.394 69.3075 118.417 69.3577 118.44 69.4074H118.8C118.718 68.4333 118.682 67.5572 118.682 66.7944V54.9404H121.089L121.073 54.9714ZM128.052 64.0271H129.953L135.2 71.7992H137.911L132.979 64.3569C132.639 63.8906 132.246 63.4651 131.809 63.0891V63.0221C132.19 62.665 132.535 62.2714 132.84 61.847L137.566 54.9717H134.901L129.933 62.0274H128.031C128.15 61.4005 128.207 60.7635 128.201 60.1256V54.9717H125.784V71.8043H128.222V65.7588C128.212 65.1779 128.155 64.5988 128.052 64.0271ZM143.395 71.8043H140.952V54.9717H143.395V71.8043Z" fill="black"/>
<path d="M90.6086 2.44154e-05C94.4808 0.00613841 98.2643 1.15996 101.481 3.31568C104.698 5.47141 107.203 8.53227 108.681 12.1115C110.158 15.6907 110.542 19.6275 109.782 23.4246C109.023 27.2216 107.156 30.7084 104.415 33.4443C101.675 36.1802 98.1854 38.0424 94.3871 38.7956C90.5889 39.5488 86.6526 39.1591 83.0758 37.6759C79.4989 36.1927 76.442 33.6824 74.2913 30.4624C72.1407 27.2423 70.9928 23.457 70.9928 19.5848C70.9928 17.0103 71.5004 14.4611 72.4866 12.0829C73.4728 9.70475 74.9181 7.54437 76.74 5.72534C78.5619 3.90632 80.7246 2.46436 83.1043 1.48195C85.484 0.499537 88.0341 -0.00404062 90.6086 2.44154e-05Z" fill="#FFDE52"/>
<path d="M83.1561 23.3421C83.0793 23.258 83.0135 23.1645 82.9602 23.0638C82.9176 22.9555 82.8966 22.84 82.8984 22.7236C82.8975 22.6074 82.9185 22.492 82.9602 22.3835C83 22.2752 83.0676 22.1792 83.1561 22.1052L94.3967 10.8233C94.4838 10.7465 94.5789 10.6791 94.6802 10.6223C94.8988 10.5465 95.1367 10.5465 95.3553 10.6223C95.4652 10.6644 95.5627 10.7335 95.6388 10.8233L102.339 17.5543C102.417 17.6383 102.485 17.7318 102.54 17.8326C102.582 17.941 102.603 18.0564 102.602 18.1727C102.603 18.289 102.582 18.4044 102.54 18.5129C102.499 18.6221 102.43 18.7183 102.339 18.7912L91.0931 30.0731C91.0124 30.1501 90.918 30.2113 90.8147 30.2535C90.706 30.294 90.5906 30.3132 90.4746 30.3102C90.3588 30.3111 90.2437 30.2919 90.1344 30.2535C90.0318 30.2101 89.9376 30.149 89.8561 30.0731L83.1561 23.3421Z" fill="#FFDE52"/>
<path d="M83.1561 23.3421C83.0793 23.258 83.0135 23.1645 82.9602 23.0638C82.9176 22.9555 82.8966 22.84 82.8984 22.7236C82.8975 22.6074 82.9185 22.492 82.9602 22.3835C83 22.2752 83.0676 22.1792 83.1561 22.1052L94.3967 10.8233C94.4838 10.7465 94.5789 10.6791 94.6802 10.6223C94.8988 10.5465 95.1367 10.5465 95.3553 10.6223C95.4652 10.6644 95.5627 10.7335 95.6388 10.8233L102.339 17.5543C102.417 17.6383 102.485 17.7318 102.54 17.8326C102.582 17.941 102.603 18.0564 102.602 18.1727C102.603 18.289 102.582 18.4044 102.54 18.5129C102.499 18.6221 102.43 18.7183 102.339 18.7912L91.0931 30.0731C91.0124 30.1501 90.918 30.2113 90.8147 30.2535C90.706 30.294 90.5906 30.3132 90.4746 30.3102C90.3588 30.3111 90.2437 30.2919 90.1344 30.2535C90.0318 30.2101 89.9376 30.149 89.8561 30.0731L83.1561 23.3421Z" fill="white"/>
<path d="M83.1561 23.3421C83.0793 23.258 83.0135 23.1645 82.9602 23.0638C82.9176 22.9555 82.8966 22.84 82.8984 22.7236C82.8975 22.6074 82.9185 22.492 82.9602 22.3835C83 22.2752 83.0676 22.1792 83.1561 22.1052L94.3967 10.8233C94.4838 10.7465 94.5789 10.6791 94.6802 10.6223C94.8988 10.5465 95.1367 10.5465 95.3553 10.6223C95.4652 10.6644 95.5627 10.7335 95.6388 10.8233L102.339 17.5543C102.417 17.6383 102.485 17.7318 102.54 17.8326C102.582 17.941 102.603 18.0564 102.602 18.1727C102.603 18.289 102.582 18.4044 102.54 18.5129C102.499 18.6221 102.43 18.7183 102.339 18.7912L91.0931 30.0731C91.0124 30.1501 90.918 30.2113 90.8147 30.2535C90.706 30.294 90.5906 30.3132 90.4746 30.3102C90.3588 30.3111 90.2437 30.2919 90.1344 30.2535C90.0318 30.2101 89.9376 30.149 89.8561 30.0731L83.1561 23.3421Z" fill="#FFDE52"/>
<path d="M83.1561 23.3421C83.0793 23.258 83.0135 23.1645 82.9602 23.0638C82.9176 22.9555 82.8966 22.84 82.8984 22.7236C82.8975 22.6074 82.9185 22.492 82.9602 22.3835C83 22.2752 83.0676 22.1792 83.1561 22.1052L94.3967 10.8233C94.4838 10.7465 94.5789 10.6791 94.6802 10.6223C94.8988 10.5465 95.1367 10.5465 95.3553 10.6223C95.4652 10.6644 95.5627 10.7335 95.6388 10.8233L102.339 17.5543C102.417 17.6383 102.485 17.7318 102.54 17.8326C102.582 17.941 102.603 18.0564 102.602 18.1727C102.603 18.289 102.582 18.4044 102.54 18.5129C102.499 18.6221 102.43 18.7183 102.339 18.7912L91.0931 30.0731C91.0124 30.1501 90.918 30.2113 90.8147 30.2535C90.706 30.294 90.5906 30.3132 90.4746 30.3102C90.3588 30.3111 90.2437 30.2919 90.1344 30.2535C90.0318 30.2101 89.9376 30.149 89.8561 30.0731L83.1561 23.3421Z" fill="white"/>
<path d="M90.9591 30.1661C90.8768 30.2428 90.785 30.3086 90.6859 30.362C90.5783 30.3999 90.465 30.4191 90.3509 30.4187C90.2387 30.417 90.1274 30.3979 90.021 30.362C89.9146 30.3214 89.8205 30.2539 89.7479 30.1661L78.7598 19.1625C78.6787 19.0833 78.6141 18.9887 78.5699 18.8843C78.5256 18.7799 78.5026 18.6678 78.5021 18.5544C78.5024 18.4417 78.5254 18.3303 78.5697 18.2267C78.6139 18.1231 78.6786 18.0295 78.7598 17.9514L85.3361 11.3853C85.4186 11.3102 85.5104 11.2461 85.6093 11.1946C85.7142 11.1528 85.8262 11.1318 85.9392 11.1328C86.0536 11.1333 86.167 11.1543 86.2742 11.1946C86.3804 11.2331 86.4746 11.2989 86.5473 11.3853L97.5354 22.394C97.6155 22.4727 97.6791 22.5666 97.7226 22.6701C97.766 22.7736 97.7884 22.8848 97.7884 22.997C97.7884 23.1093 97.766 23.2205 97.7226 23.324C97.6791 23.4275 97.6155 23.5214 97.5354 23.6L90.9591 30.1661Z" fill="#FFDE52"/>
<path fill-rule="evenodd" clip-rule="evenodd" d="M95.5358 10.1894C95.2036 10.0645 94.8372 10.0645 94.505 10.1894L94.5153 10.2358H94.4844C94.3576 10.3117 94.2386 10.3998 94.1288 10.4987L82.9036 21.7651C82.7624 21.8875 82.6543 22.0435 82.5892 22.2186C82.4573 22.5496 82.4573 22.9185 82.5892 23.2494V23.3164C82.6587 23.446 82.7454 23.5656 82.8469 23.672L89.547 30.4082C89.6748 30.5381 89.8296 30.6384 90.0004 30.702C90.1561 30.7565 90.32 30.7843 90.485 30.7844C90.6611 30.7867 90.8361 30.7552 91.0003 30.6917C91.1625 30.6277 91.3098 30.5312 91.4332 30.4082L102.638 19.116C102.779 18.9936 102.887 18.8376 102.952 18.6625C103.077 18.3302 103.077 17.9639 102.952 17.6317V17.5647C102.882 17.4339 102.794 17.3141 102.689 17.2091L95.9894 10.509C95.8646 10.3692 95.7093 10.2599 95.5358 10.1894ZM94.7267 11.1532C94.7747 11.1139 94.8265 11.0794 94.8813 11.0501C94.9325 11.0416 94.9846 11.0416 95.0358 11.0501C95.0924 11.0493 95.1485 11.0598 95.2008 11.0811C95.2352 11.0903 95.2659 11.1101 95.2884 11.1378L96.0962 11.9536L91.6661 16.3836L93.4263 18.1438L97.8477 13.7225L101.999 17.9151C102.042 17.9596 102.078 18.0099 102.107 18.0646C102.113 18.1108 102.113 18.1576 102.107 18.2038C102.109 18.2599 102.1 18.3159 102.081 18.3687C102.071 18.4028 102.052 18.4333 102.024 18.4563L90.7633 29.7537C90.7281 29.7881 90.6859 29.8144 90.6396 29.831C90.585 29.8393 90.5293 29.8393 90.4747 29.831C90.4148 29.8321 90.3553 29.8216 90.2995 29.8C90.2571 29.784 90.2185 29.7595 90.186 29.7279L83.486 22.9969C83.4469 22.9505 83.4124 22.9005 83.3829 22.8474C83.3766 22.8013 83.3766 22.7544 83.3829 22.7083C83.3821 22.6518 83.3926 22.5957 83.4138 22.5433C83.4237 22.5092 83.4434 22.4787 83.4705 22.4557L94.7267 11.1532Z" fill="black"/>
<path d="M90.9591 30.1661C90.8768 30.2428 90.785 30.3086 90.6859 30.362C90.5783 30.3999 90.465 30.4191 90.3509 30.4187C90.2387 30.417 90.1274 30.3979 90.021 30.362C89.9146 30.3214 89.8205 30.2539 89.7479 30.1661L78.7598 19.1625C78.6787 19.0833 78.6141 18.9887 78.5699 18.8843C78.5256 18.7799 78.5026 18.6678 78.5021 18.5544C78.5024 18.4417 78.5254 18.3303 78.5697 18.2267C78.6139 18.1231 78.6786 18.0295 78.7598 17.9514L85.3361 11.3853C85.4186 11.3102 85.5104 11.2461 85.6093 11.1946C85.7142 11.1528 85.8262 11.1318 85.9392 11.1328C86.0536 11.1333 86.167 11.1543 86.2742 11.1946C86.3804 11.2331 86.4746 11.2989 86.5473 11.3853L97.5354 22.394C97.6155 22.4727 97.6791 22.5666 97.7226 22.6701C97.766 22.7736 97.7884 22.8848 97.7884 22.997C97.7884 23.1093 97.766 23.2205 97.7226 23.324C97.6791 23.4275 97.6155 23.5214 97.5354 23.6L90.9591 30.1661Z" fill="white"/>
<path d="M93.4381 25.4449C93.4381 25.7893 93.1589 26.0685 92.8145 26.0685C92.47 26.0685 92.1908 25.7893 92.1908 25.4449C92.1908 25.1005 92.47 24.8213 92.8145 24.8213C93.1589 24.8213 93.4381 25.1005 93.4381 25.4449Z" fill="black"/>
<path fill-rule="evenodd" clip-rule="evenodd" d="M85.9392 10.6683C85.7629 10.6641 85.5875 10.6956 85.4238 10.7611L85.3928 10.7972H85.3568C85.2309 10.87 85.1133 10.9564 85.0063 11.0549L78.4299 17.6209C78.306 17.7432 78.2077 17.8889 78.1405 18.0494C78.0734 18.21 78.0388 18.3823 78.0388 18.5564C78.0388 18.7304 78.0734 18.9027 78.1405 19.0633C78.2077 19.2239 78.306 19.3696 78.4299 19.4918L89.4335 30.449C89.5533 30.5885 89.7055 30.6964 89.8767 30.7634C90.0308 30.8174 90.1928 30.8453 90.3561 30.8459C90.5323 30.8494 90.7075 30.8179 90.8714 30.7531H90.9384C91.0655 30.6821 91.1832 30.5955 91.2889 30.4954L97.8395 23.919C97.9632 23.7972 98.0615 23.652 98.1286 23.4918C98.1956 23.3317 98.2302 23.1598 98.2302 22.9862C98.2302 22.8125 98.1956 22.6406 98.1286 22.4805C98.0615 22.3203 97.9632 22.1751 97.8395 22.0533L86.8669 11.06C86.7446 10.9222 86.5907 10.8161 86.4185 10.7508C86.2646 10.6959 86.1025 10.668 85.9392 10.6683ZM85.666 11.7146C85.7094 11.6755 85.758 11.6426 85.8103 11.6167L85.8258 11.6527C85.9232 11.6232 86.0272 11.6232 86.1247 11.6527C86.1529 11.6605 86.1781 11.6767 86.1969 11.6991L97.1901 22.7233C97.2272 22.7585 97.2568 22.8008 97.277 22.8478C97.2972 22.8948 97.3076 22.9453 97.3076 22.9965C97.3076 23.0476 97.2972 23.0982 97.277 23.1451C97.2568 23.1921 97.2272 23.2345 97.1901 23.2696L90.6138 29.8357C90.5693 29.8734 90.5209 29.9063 90.4694 29.9336C90.425 29.9407 90.3798 29.9407 90.3354 29.9336C90.2776 29.9312 90.2204 29.9208 90.1654 29.9027C90.1385 29.8923 90.1153 29.8744 90.0984 29.8512L79.0896 18.827C79.0521 18.7921 79.0222 18.7498 79.0017 18.7028C78.9813 18.6558 78.9709 18.6051 78.9711 18.5538C78.9718 18.5027 78.9826 18.4522 79.003 18.4054C79.0233 18.3585 79.0528 18.3161 79.0896 18.2806L85.666 11.7146Z" fill="black"/>
</g>
<defs>
<clipPath id="clip0_99_4478">
<rect width="180" height="72" fill="white" transform="translate(1)"/>
</clipPath>
</defs>
</svg>
